<?xml version="1.0" encoding="utf-8"?>
<!-- Generator: Adobe Illustrator 16.0.0, SVG Export Plug-In . SVG Version: 6.00 Build 0)  -->
<!DOCTYPE svg PUBLIC "-//W3C//DTD SVG 1.1//EN" "http://www.w3.org/Graphics/SVG/1.1/DTD/svg11.dtd">
<svg version="1.1" id="Layer_1" xmlns="http://www.w3.org/2000/svg" xmlns:xlink="http://www.w3.org/1999/xlink" x="0px" y="0px"
	 width="898px" height="600px" viewBox="0 0 898 600" enable-background="new 0 0 898 600" xml:space="preserve">
<rect y="-8" width="898" height="608"/>
<g>
	<g>
		<g>
			<polygon opacity="0.2" fill="#BCBEC0" points="615.8,359 627,354.5 627,30.4 565.1,22.4 			"/>
			<ellipse cx="601.6" cy="202.3" rx="7.8" ry="11.6"/>
			<path fill="#FFFFFF" d="M636.4,154.4c-0.1-13.7-0.1-27.4-0.3-41.1l-0.6-41.1c-0.1-13.7-0.6-27.4-0.9-41.1l-0.1-6.6l-6.3-0.2
				c-12.4-0.4-24.8-0.9-37.2-1.2l-37.2-1l-37.2-0.6c-12.4-0.2-24.8-0.2-37.3-0.2c0,0,131.4,15.3,141.5,16.2
				c-0.3,11.6-0.6,23.2-0.7,34.8l-0.6,41.1c-0.3,13.7-0.2,27.4-0.3,41.1l-0.2,41.1l0.1,41.1c0.1,13.7,0,27.4,0.2,41.1l0.5,41.1
				c0.1,11.4,0.4,22.9,0.6,34.3c-10,0.8-141,17.5-141,17.5c12.4,0,24.9-0.1,37.3-0.3l37.2-0.7l37.2-1.1c12.4-0.3,24.8-0.9,37.2-1.3
				l6.8-0.3l0.1-7.1c0.3-13.7,0.7-27.4,0.8-41.1l0.5-41.1c0.2-13.7,0.1-27.4,0.2-41.1l0.1-41.1L636.4,154.4z"/>
		</g>
		<linearGradient id="SVGID_1_" gradientUnits="userSpaceOnUse" x1="452.8218" y1="366.272" x2="455.4204" y2="515.1477">
			<stop  offset="0" style="stop-color:#FFFFFF"/>
			<stop  offset="1" style="stop-color:#000000"/>
		</linearGradient>
		<polygon fill="url(#SVGID_1_)" points="634.9,366.8 483.8,514.7 273.3,514.7 603,363.7 		"/>
	</g>
	<g>
		<path fill="#FFFFFF" d="M87.5,496.8l54.6,54.2c4.5,4.5,8.6,8.2,12.3,11.1c3.7,2.9,7.2,5.3,10.5,7.1c3.3,1.8,6.5,3.1,9.6,4
			c3.1,0.8,6.2,1.3,9.5,1.5v4.1h-70.3v-4.1c4.2,0,7.3-0.7,9.1-2.1c1.8-1.4,2.8-3,2.8-4.7c0-1,0-1.8-0.1-2.4
			c-0.1-0.7-0.4-1.4-0.9-2.2c-0.5-0.8-1.3-1.8-2.4-3c-1.1-1.2-2.6-2.7-4.5-4.7l-51-50.5v47.7c0,3.5,0.1,6.4,0.2,8.6
			c0.1,2.2,0.4,4,0.9,5.3c0.4,1.4,1.1,2.5,1.8,3.3c0.8,0.8,1.8,1.6,3.2,2.3c3,1.7,6.3,2.5,9.9,2.5h5v4.1h-63v-4.1h5.3
			c6.2,0,10.6-1.8,13.3-5.3c1.8-2.5,2.6-8,2.6-16.7v-95.6c0-3.3-0.1-6.1-0.2-8.2c-0.1-2.2-0.4-3.9-0.8-5.3c-0.4-1.4-1-2.5-1.8-3.4
			c-0.8-0.9-1.8-1.7-3.2-2.5c-3.3-1.8-6.6-2.6-10-2.6h-5.3v-4h63v4h-5c-2.8,0-5.7,0.6-8.6,1.8c-2.9,1.2-4.9,3.2-6.1,5.9
			c-0.9,2.1-1.3,6.9-1.3,14.4v45.2l15-13.8c7.9-7.3,14.6-13.6,20-18.8c5.4-5.2,9.7-9.7,13-13.3c3.3-3.6,5.6-6.7,7-9
			c1.4-2.4,2.1-4.4,2.1-6.1c0-1.7-0.7-3.1-2.2-4.4c-1.5-1.3-4.1-1.9-7.8-1.9h-3.4v-4h54.3v4c-2.4,0.2-4.6,0.4-6.6,0.8
			c-2,0.4-4.2,1.1-6.6,2.2c-2.4,1.1-5.1,2.7-8.1,4.9c-3,2.2-6.7,5.2-11,9.1c-0.8,0.7-3,2.9-6.7,6.7c-3.6,3.8-8.8,9-15.5,15.7
			L87.5,496.8z"/>
		<path fill="#FFFFFF" d="M191.1,520.6h56.3v16.3h-56.3V520.6z"/>
		<path fill="#FFFFFF" d="M407.3,578.8h-39.6l-50-69.1c-1.9,0.1-3.6,0.1-5.1,0.1c-1.5,0-2.8,0-4,0c-1,0-2,0-3.1,0s-2.2,0-3.4-0.1v43
			c0,9.2,1,15,3,17.3c2.7,3.2,6.9,4.7,12.5,4.7h5.7v4.1h-63.3v-4.1h5.5c6.2,0,10.7-2,13.4-6.1c1.5-2.3,2.2-7.6,2.2-16v-95.6
			c0-9.2-1-15-3-17.3c-2.7-3.3-6.9-4.9-12.7-4.9h-5.5v-4H314c8,0,14.8,0.2,20.4,0.7c5.6,0.5,10.4,1.3,14.5,2.6
			c4.1,1.2,7.6,2.9,10.5,4.9c2.9,2.1,5.7,4.7,8.4,7.8c5.2,6.2,7.8,13.5,7.8,21.9c0,9.1-3,17.1-8.9,23.7
			c-5.9,6.7-15.1,11.4-27.5,14.1l30.5,42.5c3.5,5,6.7,9.1,9.6,12.2c2.9,3.1,5.7,5.6,8.4,7.4c2.8,1.8,5.7,3.1,8.8,4
			c3.1,0.8,6.7,1.5,10.9,1.9V578.8z M302.3,502.9h6.1c7.2,0,13.5-0.8,18.8-2.5c5.3-1.7,9.8-4,13.3-6.9c3.6-2.9,6.2-6.3,8-10.3
			s2.6-8.2,2.6-12.8c0-4.6-0.8-8.8-2.3-12.6c-1.5-3.8-3.7-7.1-6.5-9.9c-2.8-2.8-6.1-4.9-10-6.5c-3.9-1.5-8.2-2.3-12.9-2.3
			c-4.4,0-10.1,0.7-17.1,2.1V502.9z"/>
		<path fill="#FFFFFF" d="M461.1,476c6.9,0,13.2,1.3,19.1,4c5.9,2.7,11,6.3,15.3,10.9c4.3,4.6,7.7,10,10.1,16.2
			c2.4,6.2,3.6,12.8,3.6,19.8c0,4.6-0.5,9.1-1.6,13.5c-1.1,4.4-2.7,9-4.8,13.6c-4.3,9.2-10.2,16.1-17.7,20.8
			c-7.5,4.6-15.9,6.9-25.2,6.9c-6.9,0-13.2-1.4-19-4.2s-10.8-6.6-14.9-11.4c-4.1-4.8-7.4-10.3-9.7-16.6c-2.3-6.3-3.5-12.9-3.5-19.7
			c0-9.2,2.2-18.3,6.7-27.3c2.3-4.5,5-8.4,8-11.7c3.1-3.3,6.4-6.1,10-8.3c3.6-2.2,7.3-3.8,11.3-4.9C452.9,476.6,457,476,461.1,476z
			 M457.8,483.1c-3.3,0-6.4,0.7-9.4,2c-3,1.4-5.6,3.6-7.8,6.6c-2.2,3-4,6.9-5.4,11.7c-1.4,4.7-2,10.5-2,17.3
			c0,7.1,0.7,13.9,2.2,20.4c1.5,6.5,3.5,12.1,6.3,17c2.7,4.9,6,8.8,10,11.7c3.9,2.9,8.3,4.4,13.1,4.4c3.4,0,6.6-0.7,9.6-2
			c2.9-1.3,5.5-3.5,7.7-6.5c2.2-3,3.9-7,5.1-11.9c1.2-4.9,1.8-11,1.8-18.2c0-7.1-0.7-13.9-2.1-20.2c-1.4-6.4-3.4-11.9-6.1-16.7
			s-5.9-8.5-9.8-11.3C467.1,484.5,462.8,483.1,457.8,483.1z"/>
		<path fill="#FFFFFF" d="M572.8,476c6.9,0,13.2,1.3,19.1,4c5.9,2.7,11,6.3,15.3,10.9c4.3,4.6,7.7,10,10.1,16.2
			c2.4,6.2,3.6,12.8,3.6,19.8c0,4.6-0.5,9.1-1.6,13.5c-1.1,4.4-2.7,9-4.8,13.6c-4.3,9.2-10.2,16.1-17.7,20.8
			c-7.5,4.6-15.9,6.9-25.2,6.9c-6.9,0-13.2-1.4-19-4.2s-10.8-6.6-14.9-11.4c-4.1-4.8-7.4-10.3-9.7-16.6c-2.3-6.3-3.5-12.9-3.5-19.7
			c0-9.2,2.2-18.3,6.7-27.3c2.3-4.5,5-8.4,8-11.7c3.1-3.3,6.4-6.1,10-8.3c3.6-2.2,7.3-3.8,11.3-4.9C564.6,476.6,568.7,476,572.8,476
			z M569.5,483.1c-3.3,0-6.4,0.7-9.4,2c-3,1.4-5.6,3.6-7.8,6.6c-2.2,3-4,6.9-5.4,11.7c-1.4,4.7-2,10.5-2,17.3
			c0,7.1,0.7,13.9,2.2,20.4c1.5,6.5,3.5,12.1,6.3,17c2.7,4.9,6,8.8,10,11.7c3.9,2.9,8.3,4.4,13.1,4.4c3.4,0,6.6-0.7,9.6-2
			c2.9-1.3,5.5-3.5,7.7-6.5c2.2-3,3.9-7,5.1-11.9c1.2-4.9,1.8-11,1.8-18.2c0-7.1-0.7-13.9-2.1-20.2c-1.4-6.4-3.4-11.9-6.1-16.7
			s-5.9-8.5-9.8-11.3C578.8,484.5,574.4,483.1,569.5,483.1z"/>
		<path fill="#FFFFFF" d="M665.3,497.2c3.7-3.7,6.6-6.6,8.6-8.6c2.1-2.1,3.4-3.4,4.2-3.9c3.3-2.7,6.9-4.9,10.7-6.4
			c3.8-1.5,7.5-2.3,11.2-2.3c6.3,0,11.7,1.8,16.2,5.5c4.5,3.6,7.5,8.9,9,15.8c3.8-4.4,7.2-8,10.3-10.7c3.1-2.8,6-4.9,8.7-6.5
			c2.7-1.5,5.3-2.6,7.8-3.2c2.5-0.6,5.2-0.9,8-0.9c3.7,0,7.1,0.6,10.3,1.8c3.2,1.2,5.9,3.3,8.3,6.2s4.2,6.7,5.6,11.5
			c1.4,4.7,2,10.7,2,17.8v43c0,3.3,0.1,6.2,0.3,8.6c0.2,2.4,0.7,4.3,1.7,5.8c1,1.5,2.5,2.6,4.5,3.2c2,0.7,4.9,1,8.6,1v4h-49.3v-4
			h2.1c2.7,0,5-0.2,6.9-0.7c1.8-0.4,3.3-1.3,4.4-2.7c1.1-1.4,1.8-3.3,2.2-5.7c0.4-2.4,0.7-5.6,0.7-9.6v-43c0-4.7-0.4-8.7-1.1-11.8
			c-0.7-3.1-1.8-5.6-3.2-7.4c-1.4-1.8-3.1-3.1-5.2-3.9c-2.1-0.7-4.4-1.1-7.1-1.1c-1.9,0-3.8,0.2-5.7,0.7c-1.9,0.4-3.8,1.2-5.9,2.2
			c-2,1.1-4.2,2.5-6.5,4.2c-2.3,1.8-4.9,4-7.6,6.6v53.5c0,3.4,0.1,6.2,0.2,8.4c0.1,2.2,0.4,3.6,0.9,4.4c0.7,1.7,2.1,3.1,4.3,4.2
			c2.2,1.1,5.8,1.6,10.9,1.6v4h-50.5v-4c3.9,0,6.9-0.3,9.1-0.8c2.2-0.5,3.8-1.5,4.9-2.9c1.1-1.4,1.7-3.3,1.9-5.7
			c0.2-2.4,0.3-5.5,0.3-9.2v-43c0-4.7-0.4-8.5-1.3-11.7c-0.8-3.1-2-5.6-3.5-7.6c-1.5-1.9-3.3-3.3-5.4-4.1s-4.4-1.2-6.9-1.2
			c-2.4,0-4.8,0.4-7.3,1.3c-2.5,0.9-4.9,2-7.2,3.4c-2.3,1.4-4.4,2.9-6.3,4.5c-1.9,1.7-3.5,3.3-4.7,4.7v53.5c0,3.3,0.1,6,0.3,8
			c0.2,2,0.5,3.6,1,4.8c0.4,1.2,1,2.1,1.6,2.6c0.7,0.6,1.5,1.1,2.4,1.6c1.8,1,5.4,1.5,10.8,1.5v4h-49.4v-4c3.4,0,6.2-0.3,8.2-0.9
			c2-0.6,3.6-1.6,4.6-3c1.1-1.4,1.7-3.3,2-5.7s0.4-5.4,0.4-9.1v-38.2c0-6.4-0.1-11.5-0.3-15.2c-0.2-3.7-0.6-6.5-1.2-8.3
			c-0.6-1.8-1.4-3-2.4-3.4c-1-0.4-2.3-0.7-3.9-0.7c-2.1,0-4.6,0.6-7.4,1.7l-1.6-4l30.1-12.3h4.7V497.2z"/>
		<path fill="#FFFFFF" d="M873.9,476v34h-3.7c-1.4-5.4-3-9.8-4.7-13.4c-1.8-3.6-3.8-6.4-6-8.5c-2.2-2.1-4.7-3.6-7.4-4.4
			c-2.7-0.8-5.7-1.3-9-1.3c-2.5,0-4.9,0.4-6.9,1.1c-2.1,0.7-3.8,1.7-5.3,2.9c-1.5,1.2-2.7,2.6-3.5,4.2c-0.8,1.6-1.3,3.2-1.3,4.7
			c0,2,0.2,3.9,0.7,5.6c0.5,1.7,1.4,3.4,2.6,4.9c1.3,1.6,3,3.1,5.3,4.7c2.2,1.5,5.1,3.1,8.6,4.8l16,7.6c7.5,3.6,13,7.8,16.7,12.6
			c3.6,4.8,5.5,10.1,5.5,15.9c0,4.6-1,8.7-2.9,12.5c-1.9,3.7-4.5,6.9-7.6,9.6c-3.1,2.6-6.7,4.7-10.7,6.1c-4,1.4-8.1,2.2-12.2,2.2
			c-6.3,0-13.3-1.1-21-3.3c-2.6-0.7-4.6-1.1-5.9-1.1c-1.8,0-3.1,1-4,2.9h-3.6v-35.7h3.6c1,5.2,2.5,9.7,4.5,13.5c2,3.8,4.4,7,7.2,9.6
			c2.8,2.5,5.8,4.5,9.1,5.7c3.3,1.3,6.7,1.9,10.2,1.9c2.5,0,4.7-0.4,6.9-1.2s3.9-1.9,5.4-3.2c1.5-1.4,2.7-2.9,3.5-4.7
			c0.8-1.8,1.3-3.8,1.3-5.9c0-2.2-0.3-4.2-0.8-6c-0.5-1.8-1.5-3.5-3-5.2c-1.5-1.7-3.4-3.3-5.9-5c-2.5-1.7-5.6-3.5-9.4-5.5l-14.2-7.4
			c-4-2-7.1-4-9.6-5.9c-2.4-1.9-4.3-4-5.7-6.1c-1.4-2.1-2.3-4.3-2.8-6.7c-0.5-2.3-0.7-4.9-0.7-7.7c0-4,0.7-7.8,2.2-11.3
			c1.5-3.5,3.6-6.6,6.3-9.2c2.7-2.6,5.9-4.6,9.6-6.1c3.7-1.5,7.8-2.2,12.3-2.2c1.3,0,3.1,0.2,5.2,0.7c2.2,0.4,4.3,0.9,6.6,1.5
			c2.2,0.5,4.3,1,6.1,1.5c1.8,0.4,3.1,0.7,3.8,0.7c1.1,0,2-0.3,2.7-0.8c0.7-0.5,1.4-1.7,2.3-3.4H873.9z"/>
	</g>
</g>
</svg>
